<?xml version="1.0" encoding="utf-8"?>
<!-- Generator: Adobe Illustrator 21.0.2, SVG Export Plug-In . SVG Version: 6.00 Build 0)  -->
<svg version="1.1" id="Layer_1" xmlns="http://www.w3.org/2000/svg" xmlns:xlink="http://www.w3.org/1999/xlink" x="0px" y="0px"
	 viewBox="0 0 15 50" style="enable-background:new 0 0 15 50;" xml:space="preserve">
<style type="text/css">
	.st0{fill:#FFBC05;}
	.st1{fill:#E38100;}
	.st2{fill:#555160;}
</style>
<g>
	<g>
		<path class="st0" d="M4.6,8.8h6c1.9,0,3.4,1.5,3.4,3.4v34.4c0,1.9-1.5,3.4-3.4,3.4h-6c-1.9,0-3.4-1.5-3.4-3.4V12.2
			C1.2,10.3,2.7,8.8,4.6,8.8z"/>
	</g>
	<g>
		<path class="st1" d="M1.2,46.6c0,1.9,1.5,3.4,3.4,3.4h6c1.9,0,3.4-1.5,3.4-3.4V27.2c-4,3.3-8.3,6.1-12.9,8.5L1.2,46.6L1.2,46.6z"
			/>
	</g>
	<rect x="3.8" y="0.2" class="st2" width="7.7" height="8.6"/>
	<path class="st2" d="M10.6,33.7h-6c-0.5,0-0.9-0.4-0.9-0.9S4.1,32,4.6,32h6c0.5,0,0.9,0.4,0.9,0.9S11.1,33.7,10.6,33.7z"/>
	<path class="st2" d="M10.6,37.1h-6c-0.5,0-0.9-0.4-0.9-0.9c0-0.5,0.4-0.9,0.9-0.9h6c0.5,0,0.9,0.4,0.9,0.9
		C11.5,36.7,11.1,37.1,10.6,37.1z"/>
	<path class="st2" d="M10.6,40.5h-6c-0.5,0-0.9-0.4-0.9-0.9s0.4-0.9,0.9-0.9h6c0.5,0,0.9,0.4,0.9,0.9S11.1,40.5,10.6,40.5z"/>
	<path class="st2" d="M10.6,44h-6c-0.5,0-0.9-0.4-0.9-0.9s0.4-0.9,0.9-0.9h6c0.5,0,0.9,0.4,0.9,0.9S11.1,44,10.6,44z"/>
	<path class="st2" d="M10.6,47.4h-6c-0.5,0-0.9-0.4-0.9-0.9c0-0.5,0.4-0.9,0.9-0.9h6c0.5,0,0.9,0.4,0.9,0.9
		C11.5,47,11.1,47.4,10.6,47.4z"/>
	<path class="st2" d="M10.6,16.5h-6c-0.5,0-0.9-0.4-0.9-0.9s0.4-0.9,0.9-0.9h6c0.5,0,0.9,0.4,0.9,0.9C11.5,16.1,11.1,16.5,10.6,16.5
		z"/>
	<path class="st2" d="M10.6,19.9h-6c-0.5,0-0.9-0.4-0.9-0.9c0-0.5,0.4-0.9,0.9-0.9h6c0.5,0,0.9,0.4,0.9,0.9
		C11.5,19.5,11.1,19.9,10.6,19.9z"/>
	<path class="st2" d="M10.6,23.4h-6c-0.5,0-0.9-0.4-0.9-0.9s0.4-0.9,0.9-0.9h6c0.5,0,0.9,0.4,0.9,0.9S11.1,23.4,10.6,23.4z"/>
	<path class="st2" d="M10.6,26.8h-6c-0.5,0-0.9-0.4-0.9-0.9s0.4-0.9,0.9-0.9h6c0.5,0,0.9,0.4,0.9,0.9S11.1,26.8,10.6,26.8z"/>
	<path class="st2" d="M10.6,30.2h-6c-0.5,0-0.9-0.4-0.9-0.9c0-0.5,0.4-0.9,0.9-0.9h6c0.5,0,0.9,0.4,0.9,0.9
		C11.5,29.9,11.1,30.2,10.6,30.2z"/>
	<path class="st2" d="M10.6,13.1h-6c-0.5,0-0.9-0.4-0.9-0.9c0-0.5,0.4-0.9,0.9-0.9h6c0.5,0,0.9,0.4,0.9,0.9
		C11.5,12.7,11.1,13.1,10.6,13.1z"/>
</g>
</svg>
