<?xml version="1.0" encoding="utf-8"?>
<!-- Generator: Adobe Illustrator 21.0.2, SVG Export Plug-In . SVG Version: 6.00 Build 0)  -->
<svg version="1.1" id="Layer_1" xmlns="http://www.w3.org/2000/svg" xmlns:xlink="http://www.w3.org/1999/xlink" x="0px" y="0px"
	 viewBox="0 0 800 600" style="enable-background:new 0 0 800 600;" xml:space="preserve">
<style type="text/css">
	.st0{fill:#43AB5F;}
	.st1{fill:#71BE63;}
	.st2{fill:#8DD9FF;}
	.st3{fill:#94D75B;}
	.st4{fill:#B0EB81;}
	.st5{fill:#EEE1C2;}
	.st6{fill:#B2B9C9;}
	.st7{fill:#FFFFFF;}
	.st8{fill:#9FC3DD;}
	.st9{fill:#B39191;}
	.st10{fill:#FDEFDB;}
	.st11{fill:#7FAAB8;}
	.st12{fill:#674447;}
	.st13{fill:none;stroke:#FFFFFF;stroke-width:4;stroke-miterlimit:10;}
	.st14{fill:none;stroke:#FFFFFF;stroke-width:2;stroke-miterlimit:10;}
	.st15{fill:none;stroke:#E9B668;stroke-width:2;stroke-miterlimit:10;}
	.st16{fill:none;stroke:#E9B668;stroke-width:2;stroke-miterlimit:10;stroke-dasharray:6.9397,13.8793;}
</style>
<g>
	<rect x="0.2" y="412.4" class="st0" width="799.6" height="187.4"/>
	<rect x="0.2" y="318.7" class="st1" width="799.6" height="93.7"/>
	<rect x="0.2" y="0.2" class="st2" width="799.6" height="224.9"/>
	<rect x="0.2" y="262.5" class="st3" width="799.6" height="56.2"/>
	<rect x="0.2" y="225" class="st4" width="799.6" height="37.5"/>
</g>
<rect x="423.7" y="116.3" class="st5" width="22.5" height="108.7"/>
<rect x="401.2" y="133.8" class="st6" width="28.7" height="91.2"/>
<polygon class="st7" points="396,82.5 367.1,105.9 367.7,225.1 396.6,225 "/>
<rect x="746.1" y="147.6" class="st6" width="28.7" height="77.5"/>
<rect x="435" y="187.6" class="st8" width="26.2" height="37.5"/>
<rect x="446.2" y="150.1" class="st7" width="17.5" height="37.5"/>
<polygon class="st6" points="484.8,163.7 451.1,173.9 451.4,225.1 485.1,225 "/>
<rect x="485" y="125.1" class="st5" width="30" height="99.9"/>
<rect x="411.2" y="197.6" class="st9" width="23.7" height="27.5"/>
<polygon class="st7" points="572.1,82.5 543.2,105.9 543.8,225.1 572.8,225 "/>
<rect x="514.9" y="150.1" class="st8" width="40" height="75"/>
<rect x="572.4" y="125.1" class="st8" width="26.2" height="99.9"/>
<polygon class="st10" points="598.4,93.9 632.2,115.2 632.8,224.8 599,225 "/>
<rect x="572.4" y="160.1" class="st9" width="13.7" height="65"/>
<rect x="632.4" y="137.6" class="st5" width="22.5" height="87.5"/>
<rect x="654.9" y="163.8" class="st11" width="22.5" height="61.2"/>
<rect x="677.4" y="101.4" class="st7" width="26.2" height="123.7"/>
<rect x="703.6" y="175.1" class="st6" width="28.7" height="50"/>
<rect x="732.3" y="160.1" class="st10" width="21.2" height="65"/>
<rect x="753.6" y="178.8" class="st9" width="46.2" height="46.2"/>
<rect x="495" y="197.6" class="st9" width="46.2" height="27.5"/>
<rect x="591.1" y="187.6" class="st6" width="46.2" height="37.5"/>
<rect x="661.1" y="206.3" class="st10" width="22.5" height="18.7"/>
<rect x="483.7" y="208.8" class="st8" width="16.2" height="16.2"/>
<rect x="749.8" y="208.8" class="st8" width="16.2" height="16.2"/>
<rect x="708.6" y="192.6" class="st11" width="42.5" height="32.5"/>
<rect x="336.3" y="147.6" class="st6" width="28.7" height="77.5"/>
<rect x="25.2" y="187.6" class="st8" width="26.2" height="37.5"/>
<rect x="36.4" y="150.1" class="st7" width="17.5" height="37.5"/>
<polygon class="st6" points="75,163.7 41.3,173.9 41.6,225.1 75.3,225 "/>
<rect x="75.2" y="125.1" class="st5" width="30" height="99.9"/>
<rect x="1.5" y="197.6" class="st9" width="23.7" height="27.5"/>
<polygon class="st7" points="162.3,82.5 133.5,105.9 134,225.1 163,225 "/>
<rect x="105.2" y="150.1" class="st8" width="40" height="75"/>
<rect x="162.6" y="125.1" class="st8" width="26.2" height="99.9"/>
<polygon class="st10" points="188.6,93.9 222.5,115.2 223,224.8 189.3,225 "/>
<rect x="162.6" y="160.1" class="st9" width="13.7" height="65"/>
<rect x="222.6" y="137.6" class="st5" width="22.5" height="87.5"/>
<rect x="245.1" y="163.8" class="st11" width="22.5" height="61.2"/>
<rect x="267.6" y="101.4" class="st7" width="26.2" height="123.7"/>
<rect x="293.8" y="175.1" class="st6" width="28.7" height="50"/>
<rect x="322.5" y="160.1" class="st10" width="21.2" height="65"/>
<rect x="343.8" y="178.8" class="st9" width="46.2" height="46.2"/>
<rect x="85.2" y="197.6" class="st9" width="46.2" height="27.5"/>
<rect x="181.4" y="187.6" class="st6" width="46.2" height="37.5"/>
<rect x="251.3" y="206.3" class="st10" width="22.5" height="18.7"/>
<rect x="73.9" y="208.8" class="st8" width="16.2" height="16.2"/>
<rect x="340" y="208.8" class="st8" width="16.2" height="16.2"/>
<rect x="298.8" y="192.6" class="st11" width="42.5" height="32.5"/>
<polygon class="st10" points="388.5,137.6 411.1,151.8 411.5,224.9 389,225 "/>
<polygon class="st12" points="103.9,599.8 51.4,599.8 70.2,225 103.9,225 "/>
<polygon class="st12" points="103.9,599.8 156.4,599.8 137.6,225 103.9,225 "/>
<line class="st13" x1="70.2" y1="225" x2="51.4" y2="599.8"/>
<line class="st13" x1="137.6" y1="225" x2="156.4" y2="599.8"/>
<path class="st14" d="M237.6,225"/>
<g>
	<g>
		<line class="st15" x1="103.9" y1="225" x2="103.9" y2="228.5"/>
		<line class="st16" x1="103.9" y1="242.4" x2="103.9" y2="589.4"/>
		<line class="st15" x1="103.9" y1="596.3" x2="103.9" y2="599.8"/>
	</g>
</g>
</svg>
