<?xml version="1.0" encoding="utf-8"?>
<!-- Generator: Adobe Illustrator 21.0.2, SVG Export Plug-In . SVG Version: 6.00 Build 0)  -->
<svg version="1.1" id="Layer_1" xmlns="http://www.w3.org/2000/svg" xmlns:xlink="http://www.w3.org/1999/xlink" x="0px" y="0px"
	 viewBox="0 0 15 15" style="enable-background:new 0 0 15 15;" xml:space="preserve">
<style type="text/css">
	.st0{fill:#7383BF;}
	.st1{fill:#E7ECED;}
	.st2{fill:#AFB6BB;}
	.st3{fill:#F7931E;}
	.st4{fill:#C1272D;}
</style>
<g>
	<path class="st0" d="M1.8,12.3V8.8c0-0.1,0.1-0.2,0.2-0.2s0.2,0.1,0.2,0.2v3.5c0,0.3,0.3,0.6,0.6,0.6s0.6-0.3,0.6-0.6V8.8
		c0-0.7,0.6-1.3,1.3-1.3c0.1,0,0.2,0.1,0.2,0.2c0,0.1-0.1,0.2-0.2,0.2c-0.5,0-0.9,0.4-0.9,0.9v3.5c0,0.5-0.4,0.9-0.9,0.9
		S1.8,12.8,1.8,12.3z"/>
	<path class="st1" d="M1.7,8.5V8h0.6v0.5c0,0.2-0.1,0.3-0.3,0.3l0,0C1.8,8.8,1.7,8.7,1.7,8.5z"/>
	<path class="st2" d="M0.7,7.7V6.2h2.5v1.6C3.2,8,3,8.2,2.8,8.2H1.2C0.9,8.2,0.7,8,0.7,7.7z"/>
	<g>
		<path class="st2" d="M2.4,4.4c0-0.2,0.1-0.3,0.3-0.3l0,0c0.2,0,0.3,0.1,0.3,0.3v1.4H2.4V4.4z"/>
		<path class="st2" d="M0.9,4.4c0-0.2,0.1-0.3,0.3-0.3l0,0c0.2,0,0.3,0.1,0.3,0.3v1.4H0.9V4.4z"/>
	</g>
	<rect x="0.4" y="5.7" class="st1" width="3.1" height="0.6"/>
</g>
<g>
	<path class="st3" d="M4.3,3.8l0,9.2c0,0.4,0.3,0.8,0.8,0.8h4.7c0.4,0,0.8-0.3,0.8-0.8V3.5L4.3,3.8z"/>
	<path class="st3" d="M10.4,2.9C10.2,2.8,10,2.8,9.9,2.8H9.1V1.6c0-0.2-0.2-0.4-0.4-0.4H6.3c-0.2,0-0.4,0.2-0.4,0.4v1.2H5.1
		c-0.4,0-0.8,0.3-0.8,0.8V9L10.4,2.9z"/>
	<path class="st3" d="M10.7,9V3.5c0-0.4-0.3-0.8-0.8-0.8H9.1V1.6c0-0.2-0.2-0.4-0.4-0.4H6.3c-0.2,0-0.4,0.2-0.4,0.4v1.2H5.1
		c-0.2,0-0.4,0.1-0.5,0.2L10.7,9z"/>
</g>
<polygon class="st4" points="9,8 7.8,8 8.6,4.9 5.7,8.4 6.9,8.4 6.1,11.4 "/>
</svg>
