<?xml version="1.0" encoding="utf-8"?>
<!-- Generator: Adobe Illustrator 21.0.2, SVG Export Plug-In . SVG Version: 6.00 Build 0)  -->
<svg version="1.1" id="Layer_1" xmlns="http://www.w3.org/2000/svg" xmlns:xlink="http://www.w3.org/1999/xlink" x="0px" y="0px"
	 viewBox="0 0 15 50" style="enable-background:new 0 0 15 50;" xml:space="preserve">
<style type="text/css">
	.st0{fill:#FFBC05;}
	.st1{fill:#E38100;}
	.st2{fill:#555160;}
</style>
<g>
	<g>
		<path class="st0" d="M0,32.8l1.1,13.5c0.1,1.7,1.6,3.1,3.4,3.1h5.6c1.7,0,3.2-1.3,3.4-3.1l1.1-13.5c0.2-1.9-1.2-3.5-3.1-3.6
			c-0.1,0-0.2,0-0.3,0H3.4c-1.9,0-3.4,1.5-3.4,3.4C0,32.6,0,32.7,0,32.8z"/>
	</g>
	<g>
		<path class="st1" d="M1.1,46.2c0.1,1.7,1.6,3.1,3.4,3.1h5.6c1.7,0,3.2-1.3,3.4-3.1l0.7-8.5c-4.3,1.9-8.8,3.4-13.3,4.5L1.1,46.2z"
			/>
	</g>
	<polygon class="st2" points="5.6,29.1 2.2,22.4 2.2,0 5.6,0 5.6,22.4 9,29.1 	"/>
	<path class="st2" d="M10.6,33.3H3.9c-0.5,0-0.8-0.4-0.8-0.8s0.4-0.8,0.8-0.8h6.7c0.5,0,0.8,0.4,0.8,0.8S11.1,33.3,10.6,33.3z"/>
	<path class="st2" d="M10.6,36.7H3.9c-0.5,0-0.8-0.4-0.8-0.8c0-0.5,0.4-0.8,0.8-0.8h6.7c0.5,0,0.8,0.4,0.8,0.8
		C11.5,36.3,11.1,36.7,10.6,36.7z"/>
	<path class="st2" d="M10.6,40.1H3.9c-0.5,0-0.8-0.4-0.8-0.8s0.4-0.8,0.8-0.8h6.7c0.5,0,0.8,0.4,0.8,0.8S11.1,40.1,10.6,40.1z"/>
	<path class="st2" d="M10.6,43.4H3.9c-0.5,0-0.8-0.4-0.8-0.8s0.4-0.8,0.8-0.8h6.7c0.5,0,0.8,0.4,0.8,0.8S11.1,43.4,10.6,43.4z"/>
	<path class="st2" d="M10.6,46.8H3.9c-0.5,0-0.8-0.4-0.8-0.8c0-0.5,0.4-0.8,0.8-0.8h6.7c0.5,0,0.8,0.4,0.8,0.8
		C11.5,46.4,11.1,46.8,10.6,46.8z"/>
</g>
<g>
	<g>
		<path class="st0" d="M0,33.6l1.1,13.4C1.3,48.7,2.7,50,4.5,50h5.6c1.7,0,3.2-1.3,3.4-3.1l1.1-13.4c0.2-1.8-1.2-3.5-3.1-3.6
			c-0.1,0-0.2,0-0.3,0H3.4C1.5,30,0,31.4,0,33.3C0,33.4,0,33.5,0,33.6z"/>
	</g>
	<g>
		<path class="st1" d="M1.1,46.9C1.3,48.7,2.7,50,4.5,50h5.6c1.7,0,3.2-1.3,3.4-3.1l0.7-8.5c-4.3,1.9-8.8,3.4-13.3,4.5L1.1,46.9z"/>
	</g>
	<polygon class="st2" points="5.6,30 2.2,23.3 2.2,1.6 5.6,1.6 5.6,23.3 9,30 	"/>
	<path class="st2" d="M10.6,34.1H3.9c-0.5,0-0.8-0.4-0.8-0.8s0.4-0.8,0.8-0.8h6.7c0.5,0,0.8,0.4,0.8,0.8S11.1,34.1,10.6,34.1z"/>
	<path class="st2" d="M10.6,37.5H3.9c-0.5,0-0.8-0.4-0.8-0.8s0.4-0.8,0.8-0.8h6.7c0.5,0,0.8,0.4,0.8,0.8
		C11.5,37.1,11.1,37.5,10.6,37.5z"/>
	<path class="st2" d="M10.6,40.8H3.9c-0.5,0-0.8-0.4-0.8-0.8s0.4-0.8,0.8-0.8h6.7c0.5,0,0.8,0.4,0.8,0.8S11.1,40.8,10.6,40.8z"/>
	<path class="st2" d="M10.6,44.2H3.9c-0.5,0-0.8-0.4-0.8-0.8s0.4-0.8,0.8-0.8h6.7c0.5,0,0.8,0.4,0.8,0.8S11.1,44.2,10.6,44.2z"/>
	<path class="st2" d="M10.6,47.5H3.9c-0.5,0-0.8-0.4-0.8-0.8c0-0.5,0.4-0.8,0.8-0.8h6.7c0.5,0,0.8,0.4,0.8,0.8
		C11.5,47.1,11.1,47.5,10.6,47.5z"/>
</g>
<g>
	<path class="st0" d="M0,33.2l1.1,13.6C1.3,48.6,2.8,50,4.5,50h5.7c1.8,0,3.3-1.4,3.4-3.1l1.1-13.6c0.2-1.9-1.2-3.5-3.1-3.7
		c-0.1,0-0.2,0-0.3,0H3.4c-1.9,0-3.4,1.5-3.4,3.4C0,33,0,33.1,0,33.2z"/>
</g>
<g>
	<path class="st1" d="M1.1,46.9C1.3,48.6,2.8,50,4.5,50h5.7c1.8,0,3.3-1.4,3.4-3.1l0.7-8.7c-4.4,1.9-8.9,3.4-13.5,4.5L1.1,46.9z"/>
</g>
<polygon class="st2" points="5.7,29.5 2.3,22.7 2.3,0 5.7,0 5.7,22.7 9.1,29.5 "/>
<path class="st2" d="M10.8,33.8H4c-0.5,0-0.9-0.4-0.9-0.9c0-0.5,0.4-0.9,0.9-0.9h6.8c0.5,0,0.9,0.4,0.9,0.9
	C11.6,33.4,11.3,33.8,10.8,33.8z"/>
<path class="st2" d="M10.8,37.2H4c-0.5,0-0.9-0.4-0.9-0.9s0.4-0.9,0.9-0.9h6.8c0.5,0,0.9,0.4,0.9,0.9C11.6,36.8,11.3,37.2,10.8,37.2
	z"/>
<path class="st2" d="M10.8,40.6H4c-0.5,0-0.9-0.4-0.9-0.9s0.4-0.9,0.9-0.9h6.8c0.5,0,0.9,0.4,0.9,0.9S11.3,40.6,10.8,40.6z"/>
<path class="st2" d="M10.8,44H4c-0.5,0-0.9-0.4-0.9-0.9s0.4-0.9,0.9-0.9h6.8c0.5,0,0.9,0.4,0.9,0.9S11.3,44,10.8,44z"/>
<path class="st2" d="M10.8,47.4H4c-0.5,0-0.9-0.4-0.9-0.9c0-0.5,0.4-0.9,0.9-0.9h6.8c0.5,0,0.9,0.4,0.9,0.9
	C11.6,47.1,11.3,47.4,10.8,47.4z"/>
</svg>
