<?xml version="1.0" encoding="utf-8"?>
<!-- Generator: Adobe Illustrator 21.0.2, SVG Export Plug-In . SVG Version: 6.00 Build 0)  -->
<svg version="1.1" xmlns="http://www.w3.org/2000/svg" xmlns:xlink="http://www.w3.org/1999/xlink" x="0px" y="0px"
	 viewBox="0 0 392 228" style="enable-background:new 0 0 392 228;" xml:space="preserve">
<style type="text/css">
	.st0{display:none;}
	.st1{display:inline;fill:#674447;stroke:#FFFFFF;stroke-width:5;stroke-miterlimit:10;}
	.st2{display:inline;}
	.st3{clip-path:url(#SVGID_2_);}
	.st4{fill:#43AB5F;}
	.st5{fill:#71BE63;}
	.st6{fill:#8DD9FF;}
	.st7{fill:#94D75B;}
	.st8{fill:#B0EB81;}
	.st9{fill:#9FC3DD;}
	.st10{fill:#B39191;}
	.st11{fill:#7FAAB8;}
	.st12{fill:#B2B9C9;}
	.st13{fill:#FDEFDB;}
	.st14{fill:none;stroke:#FFFFFF;stroke-width:2;stroke-miterlimit:10;}
	.st15{fill:#674447;}
	.st16{fill:none;stroke:#E9B668;stroke-miterlimit:10;}
	.st17{fill:none;stroke:#E9B668;stroke-miterlimit:10;stroke-dasharray:6.7391,13.4782;}
	.st18{fill:#EEE1C2;}
	.st19{fill:#FFFFFF;}
	.st20{clip-path:url(#SVGID_4_);}
	.st21{fill:#666666;}
	.st22{fill:#4D4D4D;}
	.st23{clip-path:url(#SVGID_6_);fill-rule:evenodd;clip-rule:evenodd;fill:#0F0F0F;}
	.st24{clip-path:url(#SVGID_6_);fill-rule:evenodd;clip-rule:evenodd;}
	.st25{clip-path:url(#SVGID_6_);fill-rule:evenodd;clip-rule:evenodd;fill:#1A1A1A;}
	.st26{clip-path:url(#SVGID_6_);fill-rule:evenodd;clip-rule:evenodd;fill:#990000;}
	.st27{clip-path:url(#SVGID_6_);fill-rule:evenodd;clip-rule:evenodd;fill:#BA0000;}
	.st28{clip-path:url(#SVGID_6_);fill-rule:evenodd;clip-rule:evenodd;fill:#B0B0B0;}
	.st29{clip-path:url(#SVGID_6_);fill-rule:evenodd;clip-rule:evenodd;fill:#FF9966;}
	.st30{clip-path:url(#SVGID_6_);fill-rule:evenodd;clip-rule:evenodd;fill:#CC6633;}
	.st31{clip-path:url(#SVGID_6_);fill-rule:evenodd;clip-rule:evenodd;fill:#FFFFFF;}
</style>
<g id="Layer_1" class="st0">
	<rect x="-0.8" y="0.2" class="st1" width="392.3" height="228.6"/>
</g>
<g id="Layer_2" class="st0">
	<g class="st2">
		<defs>
			<rect id="SVGID_1_" x="-0.1" y="-0.3" width="392.3" height="228.6"/>
		</defs>
		<clipPath id="SVGID_2_">
			<use xlink:href="#SVGID_1_"  style="overflow:visible;"/>
		</clipPath>
		<g class="st3">
			<g>
				<rect x="-95.7" y="263.4" class="st4" width="711.4" height="166.7"/>
				<rect x="-95.7" y="180.1" class="st5" width="711.4" height="83.4"/>
				<rect x="-95.7" y="-103.4" class="st6" width="711.4" height="200.1"/>
				<rect x="-95.7" y="130" class="st7" width="711.4" height="50"/>
				<polygon class="st8" points="623.1,97.8 -99.4,97.8 -101.2,132.4 626.8,132.4 				"/>
			</g>
			<polygon class="st9" points="314.8,61.9 292.9,60.2 292.9,92.2 314.8,94.6 			"/>
			<polygon class="st10" points="292.9,68.8 273.8,67.2 273.8,90.2 292.9,92.2 			"/>
			<polygon class="st11" points="541.7,53.3 513.4,51.8 513.4,115.8 541.7,118.8 			"/>
			<polygon class="st12" points="616.9,70.1 576.5,67.5 576.5,122.5 616.9,126.9 			"/>
			<polygon class="st13" points="648.5,54.6 616.9,53 616.9,126.9 648.5,130.2 			"/>
			<polygon class="st10" points="722.9,81.4 648.5,76.4 648.5,130.2 722.9,138.2 			"/>
			<polygon class="st10" points="388.2,76.7 344.5,73.1 344.5,97.7 388.2,102.4 			"/>
			<polygon class="st12" points="492.3,75 439.9,71.1 439.9,107.9 492.3,113.5 			"/>
			<polygon class="st13" points="549.8,99.5 521.2,96.9 521.2,116.6 549.8,119.7 			"/>
			<rect x="334.4" y="82.2" class="st9" width="14.5" height="14.5"/>
			<polygon class="st9" points="667.8,113.1 642.8,110.8 642.8,129.6 667.8,132.3 			"/>
			<polygon class="st11" points="644.7,92.1 583.4,87.3 583.4,123.3 644.7,129.8 			"/>
			<polygon class="st10" points="257.4,50.4 223.6,48.2 223.6,84.8 257.4,88.4 			"/>
			<polygon class="st13" points="176.7,65.7 162.7,64.5 162.7,78.3 176.7,79.8 			"/>
			<polygon class="st9" points="74.1,58.1 66.2,57.4 66.2,68 74.1,68.8 			"/>
			<polygon class="st9" points="232.5,72.8 220.9,71.7 220.9,84.5 232.5,85.8 			"/>
			<polygon class="st11" points="221.8,58.9 192.9,56.7 192.9,81.5 221.8,84.6 			"/>
			<line class="st14" x1="64.4" y1="67.8" x2="55.5" y2="308.8"/>
			<line class="st14" x1="98.2" y1="71.4" x2="108.1" y2="331.7"/>
			<path class="st14" d="M154.3,77.4"/>
			<g>
				<polygon class="st15" points="119.6,530.9 17.8,468.5 203.6,103.5 226.4,104.3 				"/>
				<polygon class="st15" points="119.6,530.9 259.8,616.8 250.4,105.2 226.4,104.3 				"/>
				<g>
					<g>
						<line class="st16" x1="223.1" y1="117.7" x2="222.2" y2="121.1"/>
						<line class="st17" x1="218.8" y1="134.1" x2="154.2" y2="381.9"/>
						<line class="st16" x1="152.5" y1="388.5" x2="151.6" y2="391.8"/>
					</g>
				</g>
			</g>
			<polygon class="st18" points="259.7,39.8 241.3,39.6 241.3,131.5 259.7,133.5 			"/>
			<polygon class="st12" points="246.4,54.5 223.6,53.9 223.6,129.6 246.4,132 			"/>
			<polygon class="st19" points="219.5,11.4 197.9,30.7 198.3,127 220.1,129.2 			"/>
			<polygon class="st12" points="639.3,81.6 594.8,79.8 594.8,169.3 639.3,174 			"/>
			<polygon class="st19" points="274.5,69.5 259.7,68.9 259.7,101.2 274.5,102.3 			"/>
			<polygon class="st12" points="293,82.4 263,91.4 263.2,137 293.2,136.9 			"/>
			<polygon class="st18" points="320.5,48.6 293.1,48 293.1,137 320.5,140 			"/>
			<polygon class="st19" points="377.2,8.6 347.9,31.1 348.4,143 377.9,146 			"/>
			<polygon class="st9" points="359.5,73 320.5,71.4 320.5,140 359.5,144.1 			"/>
			<polygon class="st9" points="405.6,50.2 377.5,49.7 377.5,146 405.6,149 			"/>
			<polygon class="st13" points="405.4,19.4 443.8,40.8 444.4,153 406.1,149 			"/>
			<polygon class="st10" points="392.1,84.1 377.5,83.4 377.5,146 392.1,147.6 			"/>
			<polygon class="st18" points="471,64.5 444,63.7 444,153.1 471,156 			"/>
			<polygon class="st19" points="534.1,26.6 499.3,26.6 499.3,159.1 534.1,162.8 			"/>
			<polygon class="st12" points="196.4,64.3 175.9,63.5 175.9,124.5 196.4,126.7 			"/>
			<polygon class="st9" points="13,82.9 1,82 1,105.8 13,107.1 			"/>
			<polygon class="st19" points="14.2,58.8 6.1,58.4 6.1,82.4 14.2,83 			"/>
			<polygon class="st12" points="24.3,68.1 8.4,73.8 8.5,106.7 24.4,108.3 			"/>
			<polygon class="st18" points="39.1,43.1 24.3,42.8 24.3,108.3 39.1,109.9 			"/>
			<polygon class="st10" points="1,88.4 -9.6,87.5 -9.6,104.7 1,105.8 			"/>
			<polygon class="st19" points="68.9,14.1 53.6,30.3 53.9,111.5 69.3,113.1 			"/>
			<polygon class="st9" points="59.7,60.6 39.1,59.8 39.1,109.9 59.7,112.1 			"/>
			<polygon class="st9" points="83.5,43.9 69.1,43.7 69.1,113.1 83.5,114.6 			"/>
			<polygon class="st13" points="82.5,21.6 102.1,36.9 102.5,116.7 82.9,114.7 			"/>
			<polygon class="st10" points="76.6,68.3 69.1,68 69.1,113.1 76.6,113.9 			"/>
			<polygon class="st18" points="116.4,53.8 103,53.4 103,116.7 116.4,118.1 			"/>
			<polygon class="st11" points="130.3,73.8 116.4,73.1 116.4,118.1 130.3,119.6 			"/>
			<polygon class="st19" points="147.2,27.1 130.3,27.1 130.3,119.6 147.2,121.4 			"/>
			<polygon class="st12" points="166.4,84.5 147.2,83.3 147.2,121.4 166.4,123.5 			"/>
			<polygon class="st13" points="181.1,73.6 166.4,72.8 166.4,123.5 181.1,125.1 			"/>
			<polygon class="st10" points="89.2,69.3 65.9,67.4 65.9,85.5 89.2,88 			"/>
			<polygon class="st12" points="142.6,66.5 116.1,64.5 116.1,90.9 142.6,93.7 			"/>
			<polygon class="st13" points="213.9,56.8 231.3,69.2 231.6,130.3 214.2,128.5 			"/>
		</g>
	</g>
</g>
<g id="Layer_3">
	<g>
		<defs>
			<rect id="SVGID_3_" x="-0.1" y="-0.3" width="392.3" height="228.6"/>
		</defs>
		<clipPath id="SVGID_4_">
			<use xlink:href="#SVGID_3_"  style="overflow:visible;"/>
		</clipPath>
		<g class="st20">
			<g>
				<rect x="-95.7" y="263.4" class="st4" width="711.4" height="166.7"/>
				<rect x="-95.7" y="180.1" class="st5" width="711.4" height="83.4"/>
				<rect x="-95.7" y="-103.4" class="st6" width="711.4" height="200.1"/>
				<rect x="-95.7" y="130" class="st7" width="711.4" height="50"/>
				<polygon class="st8" points="623.1,97.8 -99.4,97.8 -101.2,132.4 626.8,132.4 				"/>
			</g>
			<polygon class="st9" points="314.8,61.9 292.9,60.2 292.9,92.2 314.8,94.6 			"/>
			<polygon class="st10" points="292.9,68.8 273.8,67.2 273.8,90.2 292.9,92.2 			"/>
			<polygon class="st11" points="541.7,53.3 513.4,51.8 513.4,115.8 541.7,118.8 			"/>
			<polygon class="st12" points="616.9,70.1 576.5,67.5 576.5,122.5 616.9,126.9 			"/>
			<polygon class="st13" points="648.5,54.6 616.9,53 616.9,126.9 648.5,130.2 			"/>
			<polygon class="st10" points="722.9,81.4 648.5,76.4 648.5,130.2 722.9,138.2 			"/>
			<polygon class="st10" points="388.2,76.7 344.5,73.1 344.5,97.7 388.2,102.4 			"/>
			<polygon class="st12" points="492.3,75 439.9,71.1 439.9,107.9 492.3,113.5 			"/>
			<polygon class="st13" points="549.8,99.5 521.2,96.9 521.2,116.6 549.8,119.7 			"/>
			<rect x="334.4" y="82.2" class="st9" width="14.5" height="14.5"/>
			<polygon class="st9" points="667.8,113.1 642.8,110.8 642.8,129.6 667.8,132.3 			"/>
			<polygon class="st11" points="644.7,92.1 583.4,87.3 583.4,123.3 644.7,129.8 			"/>
			<polygon class="st10" points="257.4,50.4 223.6,48.2 223.6,84.8 257.4,88.4 			"/>
			<polygon class="st13" points="176.7,65.7 162.7,64.5 162.7,78.3 176.7,79.8 			"/>
			<polygon class="st9" points="74.1,58.1 66.2,57.4 66.2,68 74.1,68.8 			"/>
			<polygon class="st9" points="232.5,72.8 220.9,71.7 220.9,84.5 232.5,85.8 			"/>
			<polygon class="st11" points="221.8,58.9 192.9,56.7 192.9,81.5 221.8,84.6 			"/>
			<line class="st14" x1="64.4" y1="67.8" x2="55.5" y2="308.8"/>
			<line class="st14" x1="98.2" y1="71.4" x2="108.1" y2="331.7"/>
			<path class="st14" d="M154.3,77.4"/>
			<g>
				<polygon class="st15" points="119.6,530.9 17.8,468.5 203.6,103.5 226.4,104.3 				"/>
				<polygon class="st15" points="119.6,530.9 259.8,616.8 250.4,105.2 226.4,104.3 				"/>
				<g>
					<g>
						<line class="st16" x1="223.1" y1="117.7" x2="222.2" y2="121.1"/>
						<line class="st17" x1="218.8" y1="134.1" x2="154.2" y2="381.9"/>
						<line class="st16" x1="152.5" y1="388.5" x2="151.6" y2="391.8"/>
					</g>
				</g>
			</g>
			<polygon class="st18" points="259.7,39.8 241.3,39.6 241.3,131.5 259.7,133.5 			"/>
			<polygon class="st12" points="246.4,54.5 223.6,53.9 223.6,129.6 246.4,132 			"/>
			<polygon class="st19" points="219.5,11.4 197.9,30.7 198.3,127 220.1,129.2 			"/>
			<polygon class="st12" points="639.3,81.6 594.8,79.8 594.8,169.3 639.3,174 			"/>
			<polygon class="st19" points="274.5,69.5 259.7,68.9 259.7,101.2 274.5,102.3 			"/>
			<polygon class="st12" points="293,82.4 263,91.4 263.2,137 293.2,136.9 			"/>
			<polygon class="st18" points="320.5,48.6 293.1,48 293.1,137 320.5,140 			"/>
			<polygon class="st19" points="377.2,8.6 347.9,31.1 348.4,143 377.9,146 			"/>
			<polygon class="st9" points="359.5,73 320.5,71.4 320.5,140 359.5,144.1 			"/>
			<polygon class="st9" points="405.6,50.2 377.5,49.7 377.5,146 405.6,149 			"/>
			<polygon class="st13" points="405.4,19.4 443.8,40.8 444.4,153 406.1,149 			"/>
			<polygon class="st10" points="392.1,84.1 377.5,83.4 377.5,146 392.1,147.6 			"/>
			<polygon class="st18" points="471,64.5 444,63.7 444,153.1 471,156 			"/>
			<polygon class="st19" points="534.1,26.6 499.3,26.6 499.3,159.1 534.1,162.8 			"/>
			<polygon class="st12" points="196.4,64.3 175.9,63.5 175.9,124.5 196.4,126.7 			"/>
			<polygon class="st9" points="13,82.9 1,82 1,105.8 13,107.1 			"/>
			<polygon class="st19" points="14.2,58.8 6.1,58.4 6.1,82.4 14.2,83 			"/>
			<polygon class="st12" points="24.3,68.1 8.4,73.8 8.5,106.7 24.4,108.3 			"/>
			<polygon class="st18" points="39.1,43.1 24.3,42.8 24.3,108.3 39.1,109.9 			"/>
			<polygon class="st10" points="1,88.4 -9.6,87.5 -9.6,104.7 1,105.8 			"/>
			<polygon class="st19" points="68.9,14.1 53.6,30.3 53.9,111.5 69.3,113.1 			"/>
			<polygon class="st9" points="59.7,60.6 39.1,59.8 39.1,109.9 59.7,112.1 			"/>
			<polygon class="st9" points="83.5,43.9 69.1,43.7 69.1,113.1 83.5,114.6 			"/>
			<polygon class="st13" points="82.5,21.6 102.1,36.9 102.5,116.7 82.9,114.7 			"/>
			<polygon class="st10" points="76.6,68.3 69.1,68 69.1,113.1 76.6,113.9 			"/>
			<polygon class="st18" points="116.4,53.8 103,53.4 103,116.7 116.4,118.1 			"/>
			<polygon class="st11" points="130.3,73.8 116.4,73.1 116.4,118.1 130.3,119.6 			"/>
			<polygon class="st19" points="147.2,27.1 130.3,27.1 130.3,119.6 147.2,121.4 			"/>
			<polygon class="st12" points="166.4,84.5 147.2,83.3 147.2,121.4 166.4,123.5 			"/>
			<polygon class="st13" points="181.1,73.6 166.4,72.8 166.4,123.5 181.1,125.1 			"/>
			<polygon class="st10" points="89.2,69.3 65.9,67.4 65.9,85.5 89.2,88 			"/>
			<polygon class="st12" points="142.6,66.5 116.1,64.5 116.1,90.9 142.6,93.7 			"/>
			<polygon class="st13" points="213.9,56.8 231.3,69.2 231.6,130.3 214.2,128.5 			"/>
		</g>
	</g>
	<path class="st21" d="M-0.3,112c0,0,79.5-10,196.2-10s196.2,10,196.2,10v116.3H-0.3V112z"/>
	<path class="st21" d="M69.7,119c12-1.7-65.5,7.6-53.3,5.5c16.1-2.8,16.2-11.9,16.2-11.9L5.5-0.3H19L46,112
		C46,112,47.5,122.2,69.7,119z"/>
	<path class="st22" d="M69.7,119c12-1.7-62.5,7.6-50.3,5.5c16.1-2.8,16.2-11.9,16.2-11.9L8.5-0.3H19L46,112
		C46,112,47.5,122.2,69.7,119z"/>
	<path class="st22" d="M-0.4,122c0,0,79.6-15,196.3-15s196.3,5,196.3,5v116.3H-0.4V122z"/>
	<g>
		<defs>
			<rect id="SVGID_5_" x="-0.3" y="-0.3" width="392.3" height="228.6"/>
		</defs>
		<clipPath id="SVGID_6_">
			<use xlink:href="#SVGID_5_"  style="overflow:visible;"/>
		</clipPath>
		<path class="st23" d="M346.3,201.7c-19.5,9.3-88.8,18.2-124.8,2.8l-36,44.3l10.7,179.7c19.3-13.9,38.6-27.8,57.9-41.7
			c-20.2,4.4-24-3.6-22.7-12.1c4.3-29,16.2-58.9,36.4-80.2c23.3-24.6,58.5-34,87.8-51C352.5,229.6,349.4,215.7,346.3,201.7z"/>
		<path class="st24" d="M248,211.3c-9.8-1.3-18.9-3.5-26.6-6.8l-36,44.3l4.6,77.3c2,0.2,4.1,0.3,6.1,0.3c38.2,0,69.2-31,69.2-69.2
			C265.4,239.5,258.8,223.5,248,211.3z"/>
		<path class="st24" d="M346.3,201.7c-5.5,2.6-15,5.2-26.6,7.3c5.8,14.9,9,31.1,9,48.1c9.2-4.3,18.3-8.6,26.9-13.6
			C352.5,229.6,349.4,215.7,346.3,201.7L346.3,201.7z M193.9,389.6l2.3,38.9c19.3-13.9,38.6-27.8,57.9-41.7
			c-11.7,2.6-17.9,1-20.8-2.5c-11.8,3.4-24.2,5.3-37.1,5.3C195.4,389.6,194.6,389.6,193.9,389.6z"/>
		<path class="st25" d="M46.1,201.7c19.5,9.3,88.8,18.2,124.8,2.8l25.2,44.3v179.7c-19.3-13.9-38.6-27.8-57.9-41.7
			c20.2,4.4,24-3.6,22.7-12.1c-4.3-29-16.2-58.9-36.4-80.2c-23.3-24.6-58.5-34-87.8-51C39.9,229.6,43,215.7,46.1,201.7z"/>
		<path class="st23" d="M144.4,211.3c9.8-1.3,18.9-3.5,26.6-6.8l25.2,44.3v77.5c-38.2,0-69.2-31-69.2-69.2
			C127,239.5,133.6,223.5,144.4,211.3z"/>
		<path class="st23" d="M46.1,201.7c5.5,2.6,15,5.2,26.6,7.3c-5.8,14.9-9,31.1-9,48.1c-9.2-4.3-18.3-8.6-26.9-13.6
			C39.9,229.6,43,215.7,46.1,201.7L46.1,201.7z M196.2,389.6v38.9c-19.3-13.9-38.6-27.8-57.9-41.7c11.7,2.6,17.8,1,20.8-2.5
			C170.8,387.8,183.3,389.6,196.2,389.6z"/>
		<path class="st26" d="M196.2,75.9c100.1,0,181.3,81.2,181.3,181.3c0,100.1-81.2,181.3-181.3,181.3
			c-100.1,0-181.3-81.2-181.3-181.3C14.9,157.1,96.1,75.9,196.2,75.9L196.2,75.9z M196.2,91.1c-91.7,0-166,74.3-166,166
			c0,91.7,74.3,166,166,166c91.7,0,166-74.3,166-166C362.2,165.5,287.9,91.1,196.2,91.1z"/>
		<path class="st27" d="M196.2,87.8c93.5,0,169.4,75.8,169.4,169.4s-75.8,169.4-169.4,169.4c-93.5,0-169.4-75.8-169.4-169.4
			S102.7,87.8,196.2,87.8L196.2,87.8z M196.2,92.9c-90.7,0-164.3,73.5-164.3,164.3c0,90.7,73.5,164.3,164.3,164.3
			c90.7,0,164.3-73.5,164.3-164.3C360.5,166.4,286.9,92.9,196.2,92.9z"/>
		<path class="st28" d="M196.2,321.4c35.4,0,64.2-28.9,64.2-64.2c0-35.4-28.9-64.2-64.2-64.2c-35.4,0-64.2,28.9-64.2,64.2
			C132,292.5,160.8,321.4,196.2,321.4z"/>
		<path class="st26" d="M196.2,301.6c24.5,0,44.5-20,44.5-44.5c0-24.5-20-44.5-44.5-44.5c-24.5,0-44.5,20-44.5,44.5
			C151.7,281.7,171.7,301.6,196.2,301.6z"/>
		<path class="st27" d="M196.2,296.9c21.9,0,39.7-17.8,39.7-39.7c0-21.9-17.8-39.7-39.7-39.7c-21.9,0-39.7,17.8-39.7,39.7
			C156.5,279,174.3,296.9,196.2,296.9z"/>
		<path class="st23" d="M97.8,259c9.8,0,17.8-8,17.8-17.8c0-9.8-8-17.8-17.8-17.8c-9.8,0-17.8,8-17.8,17.8C80,251,88,259,97.8,259z"
			/>
		<path class="st28" d="M97.8,256.3c8.3,0,15.1-6.8,15.1-15.1c0-8.3-6.8-15.1-15.1-15.1c-8.3,0-15.1,6.8-15.1,15.1
			C82.7,249.5,89.5,256.3,97.8,256.3z"/>
		<path class="st25" d="M97.6,230.6l5.7,1.6c0.9,0.3,1.5,1.2,1.2,2.2l-1,3.6l3.6,1c0.9,0.3,1.5,1.2,1.2,2.2l-1.6,5.7
			c-0.3,0.9-1.2,1.5-2.2,1.2l-3.6-1l-1,3.6c-0.3,0.9-1.2,1.5-2.2,1.2l-5.7-1.6c-0.9-0.3-1.5-1.2-1.2-2.2l1-3.6l-3.6-1
			c-0.9-0.3-1.5-1.2-1.2-2.2l1.6-5.7c0.3-0.9,1.2-1.5,2.2-1.2l3.6,1l1-3.6C95.7,230.9,96.7,230.3,97.6,230.6z"/>
		<path class="st28" d="M308,239.9c4.2,0,8.5,3.4,9.6,7.6c1.1,4.2-1.4,7.6-5.7,7.6s-8.5-3.4-9.6-7.6
			C301.2,243.3,303.7,239.9,308,239.9L308,239.9z M301,221.7c4.2,0,8.5,3.4,9.6,7.6c1.1,4.2-1.4,7.6-5.7,7.6c-4.2,0-8.5-3.4-9.6-7.6
			C294.2,225.1,296.7,221.7,301,221.7L301,221.7z M282.6,223.8c4.2,0,8.5,3.4,9.6,7.6c1.1,4.2-1.4,7.6-5.7,7.6
			c-4.2,0-8.5-3.4-9.6-7.6C275.8,227.3,278.3,223.8,282.6,223.8L282.6,223.8z M289,246.6c4.2,0,8.5,3.4,9.6,7.6
			c1.1,4.2-1.4,7.6-5.7,7.6c-4.2,0-8.5-3.4-9.6-7.6C282.2,250,284.8,246.6,289,246.6z"/>
		<path class="st29" d="M46.6,499.8c-5.2-45.7,3.1-71.8-1.7-102.9c2.8-8,6.7-16,11.9-23.9c9.5-20.5,7.1-46.9,8-82
			c0.3-10.2,8.4-12.5,14.3-20.8c-0.7-3.8-3.3-8.3-6.6-9c-36.5-7.5-27.9,61.9-46,60c-12.6-39-14.5-76.7-3.9-116.6
			c-9.4,8.7-23.6,14.2-28.1,26.1c-4.2,11-5.4,23.5-7.5,35.2c-2.7,15.2-5.7,29.7-4.9,45C-16,345.2-5,376.1-7.1,410.5
			c-2.4,39.2-12.1,76.2-24,113.7C-5.2,505.7,20.7,518.2,46.6,499.8z"/>
		<path class="st30" d="M26.6,321.2c-9.9-30.6-13.2-60.5-9-91.3l0,0c-1.1,3.9-4.3,7-6.7,8c1.3,17.5,0.1,32.6-4.1,44.6
			C15.5,292.9,20.4,305,26.6,321.2z"/>
		<polygon class="st24" points="-31.1,524.2 -18.5,438.8 59.2,429.7 55.5,503.7 		"/>
		<polygon class="st31" points="-14.6,438.3 -12.3,409.9 51.8,404.9 51.5,430.6 		"/>
		<path class="st29" d="M346,499.8c5.2-45.7-3.1-71.8,1.7-102.9c-2.8-8-6.7-16-11.9-23.9c-9.5-20.5-7.1-46.9-8-82
			c-0.3-10.2-8.4-12.5-14.3-20.8c0.7-3.8,3.3-8.3,6.6-9c36.5-7.5,27.9,61.9,46,60c12.6-39,14.5-76.7,3.9-116.6
			c9.4,8.7,23.6,14.2,28.1,26.1c4.2,11,5.4,23.5,7.5,35.2c2.7,15.2,5.7,29.7,4.9,45c-1.9,34.4-12.9,65.3-10.7,99.6
			c2.4,39.2,12.1,76.2,24,113.7C397.8,505.7,371.9,518.2,346,499.8z"/>
		<path class="st30" d="M366.1,321.2c9.9-30.6,13.2-60.5,9-91.3l0,0c1.1,3.9,4.3,7,6.7,8c-1.3,17.5-0.1,32.6,4.1,44.6
			C377.1,292.9,372.3,305,366.1,321.2z"/>
		<polygon class="st24" points="423.7,524.2 411.1,438.8 333.4,429.7 337.1,503.7 		"/>
		<polygon class="st31" points="407.2,438.3 404.9,409.9 340.8,404.9 341.1,430.6 		"/>
	</g>
</g>
</svg>
