<?xml version="1.0" encoding="utf-8"?>
<!-- Generator: Adobe Illustrator 21.0.2, SVG Export Plug-In . SVG Version: 6.00 Build 0)  -->
<svg version="1.1" id="Layer_1" xmlns="http://www.w3.org/2000/svg" xmlns:xlink="http://www.w3.org/1999/xlink" x="0px" y="0px"
	 viewBox="0 0 15 15" style="enable-background:new 0 0 15 15;" xml:space="preserve">
<style type="text/css">
	.st0{fill:#F7931E;}
	.st1{fill:#F44336;}
</style>
<g>
	<g>
		<path class="st0" d="M10.7,9V3.5c0-0.4-0.3-0.8-0.8-0.8H9.1V1.6c0-0.2-0.2-0.4-0.4-0.4H6.3c-0.2,0-0.4,0.2-0.4,0.4v1.2H5.1
			c-0.2,0-0.4,0.1-0.5,0.2L10.7,9z"/>
		<path class="st0" d="M4.3,4.4V13c0,0.4,0.3,0.8,0.8,0.8h4.7c0.4,0,0.8-0.3,0.8-0.8v-2.4L4.3,4.4z"/>
	</g>
	<path class="st1" d="M13.4,13.8c-0.1,0-0.2,0-0.3-0.1L1.3,1.9c-0.2-0.2-0.2-0.4,0-0.6s0.4-0.2,0.6,0l11.9,11.9
		c0.2,0.2,0.2,0.4,0,0.6C13.6,13.8,13.5,13.8,13.4,13.8z"/>
</g>
</svg>
