<?xml version="1.0" encoding="utf-8"?>
<!-- Generator: Adobe Illustrator 21.0.2, SVG Export Plug-In . SVG Version: 6.00 Build 0)  -->
<svg version="1.1" id="Layer_1" xmlns="http://www.w3.org/2000/svg" xmlns:xlink="http://www.w3.org/1999/xlink" x="0px" y="0px"
	 viewBox="0 0 800 65" style="enable-background:new 0 0 800 65;" xml:space="preserve">
<style type="text/css">
	.st0{fill:#F4F427;}
	.st1{fill:#F4B70B;}
	.st2{fill:#FFFFFF;}
	.st3{fill:#E6E6E6;}
</style>
<g>
	<polygon class="st0" points="42,25.5 38.5,28.5 40.4,32.7 35.9,33.9 35.8,38.4 31.3,37.6 29.1,41.6 25.5,38.9 21.8,41.6 19.7,37.6 
		15.2,38.4 15,33.9 10.6,32.7 12.4,28.5 9,25.5 12.4,22.6 10.6,18.4 15,17.2 15.2,12.6 19.7,13.5 21.8,9.4 25.5,12.2 29.1,9.4 
		31.3,13.5 35.8,12.6 35.9,17.2 40.4,18.4 38.5,22.6 	"/>
	<circle class="st1" cx="25.5" cy="25.5" r="11"/>
</g>
<path class="st2" d="M149.7,21.7c6.6-0.4,12.3,4.7,12.7,11.3s-4.7,12.3-11.3,12.7c-0.5,0-0.9,0-1.4,0h-34.9c-5.2,0-9.4-4.2-9.4-9.4
	c0-5.2,4.2-9.4,9.4-9.4h0.7c-1.1-8,4.5-15.3,12.4-16.5s15.3,4.5,16.5,12.4C146,22.1,147.9,21.7,149.7,21.7L149.7,21.7z"/>
<path class="st3" d="M67.9,26.4c8-0.5,14.9,6,15.3,14.4c0.5,8.4-5.6,15.7-13.6,16.2c-0.6,0-1.1,0-1.7,0H25.8
	c-6.3,0-11.3-5.4-11.3-11.9c0-6.6,5.1-11.9,11.3-11.9h0.8c-1.3-10.2,5.4-19.5,15-21s18.5,5.7,19.9,15.9
	C63.5,26.9,65.7,26.4,67.9,26.4L67.9,26.4z"/>
<path class="st3" d="M774.6,32.9c6.6-0.4,12.3,4.7,12.7,11.3s-4.7,12.3-11.3,12.7c-0.5,0-0.9,0-1.4,0h-34.9c-5.2,0-9.4-4.2-9.4-9.4
	c0-5.2,4.2-9.4,9.4-9.4h0.7c-1.1-8,4.5-15.3,12.4-16.5c8-1.1,15.3,4.5,16.5,12.4C770.9,33.4,772.8,32.9,774.6,32.9L774.6,32.9z"/>
<path class="st2" d="M712.2,18.2c5.1-0.3,9.5,3.6,9.8,8.7c0.3,5.1-3.6,9.5-8.7,9.8c-0.4,0-0.7,0-1.1,0h-26.8c-4,0-7.2-3.2-7.2-7.2
	c0-4,3.2-7.2,7.2-7.2h0.5c-0.9-6.1,3.4-11.8,9.6-12.7s11.8,3.4,12.7,9.6C709.4,18.5,710.8,18.2,712.2,18.2L712.2,18.2z"/>
<path class="st2" d="M300,23.2c5.1-0.3,9.5,3.6,9.8,8.7s-3.6,9.5-8.7,9.8c-0.4,0-0.7,0-1.1,0h-26.8c-4,0-7.2-3.2-7.2-7.2
	c0-4,3.2-7.2,7.2-7.2h0.5c-0.9-6.1,3.4-11.8,9.6-12.7c6.1-0.9,11.8,3.4,12.7,9.6C297.2,23.5,298.5,23.1,300,23.2L300,23.2z"/>
<path class="st2" d="M473.6,31.9c5.1-0.3,9.5,3.6,9.8,8.7c0.3,5.1-3.6,9.5-8.7,9.8c-0.4,0-0.7,0-1.1,0h-26.8c-4,0-7.2-3.2-7.2-7.2
	c0-4,3.2-7.2,7.2-7.2h0.5c-0.9-6.1,3.4-11.8,9.6-12.7c6.1-0.9,11.8,3.4,12.7,9.6C470.8,32.2,472.2,31.9,473.6,31.9L473.6,31.9z"/>
<path class="st3" d="M392.3,21.7c6.6-0.4,12.3,4.7,12.7,11.3s-4.7,12.3-11.3,12.7c-0.5,0-0.9,0-1.4,0h-34.9c-5.2,0-9.4-4.2-9.4-9.4
	c0-5.2,4.2-9.4,9.4-9.4h0.7c-1.1-8,4.5-15.3,12.4-16.5s15.3,4.5,16.5,12.4C388.6,22.1,390.5,21.7,392.3,21.7L392.3,21.7z"/>
<path class="st3" d="M557.2,16.7c6.6-0.4,12.3,4.7,12.7,11.3s-4.7,12.3-11.3,12.7c-0.5,0-0.9,0-1.4,0h-34.9c-5.2,0-9.4-4.2-9.4-9.4
	c0-5.2,4.2-9.4,9.4-9.4h0.7c-1.1-8,4.5-15.3,12.4-16.5c8-1.1,15.3,4.5,16.5,12.4C553.6,17.1,555.4,16.7,557.2,16.7L557.2,16.7z"/>
<path class="st3" d="M638.5,31.9c5.1-0.3,9.5,3.6,9.8,8.7c0.3,5.1-3.6,9.5-8.7,9.8c-0.4,0-0.7,0-1.1,0h-26.8c-4,0-7.2-3.2-7.2-7.2
	c0-4,3.2-7.2,7.2-7.2h0.5c-0.9-6.1,3.4-11.8,9.6-12.7c6.1-0.9,11.8,3.4,12.7,9.6C635.7,32.2,637.1,31.9,638.5,31.9L638.5,31.9z"/>
<path class="st3" d="M227.5,18.2c5.1-0.3,9.5,3.6,9.8,8.7s-3.6,9.5-8.7,9.8c-0.4,0-0.7,0-1.1,0h-26.8c-4,0-7.2-3.2-7.2-7.2
	c0-4,3.2-7.2,7.2-7.2h0.5c-0.9-6.1,3.4-11.8,9.6-12.7s11.8,3.4,12.7,9.6C224.7,18.5,226.1,18.2,227.5,18.2L227.5,18.2z"/>
</svg>
