<?xml version="1.0" encoding="utf-8"?>
<!-- Generator: Adobe Illustrator 21.0.2, SVG Export Plug-In . SVG Version: 6.00 Build 0)  -->
<svg version="1.1" id="Layer_1" xmlns="http://www.w3.org/2000/svg" xmlns:xlink="http://www.w3.org/1999/xlink" x="0px" y="0px"
	 viewBox="0 0 800 65" style="enable-background:new 0 0 800 65;" xml:space="preserve">
<style type="text/css">
	.st0{fill:#E6E6E6;}
	.st1{fill:#CCCCCC;}
</style>
<path class="st0" d="M121.8,30.4c6.6-0.4,12.3,4.7,12.7,11.3c0.4,6.6-4.7,12.3-11.3,12.7c-0.5,0-0.9,0-1.4,0H87
	c-5.2,0-9.4-4.2-9.4-9.4c0-5.2,4.2-9.4,9.4-9.4h0.7c-1.1-8,4.5-15.3,12.4-16.5c8-1.1,15.3,4.5,16.5,12.4
	C118.2,30.9,120,30.4,121.8,30.4L121.8,30.4z"/>
<path class="st1" d="M39.3,16.7c5.1-0.3,9.5,3.6,9.8,8.7c0.3,5.1-3.6,9.5-8.7,9.8c-0.4,0-0.7,0-1.1,0H12.4c-4,0-7.2-3.2-7.2-7.2
	c0-4,3.2-7.2,7.2-7.2h0.5c-0.9-6.1,3.4-11.8,9.6-12.7s11.8,3.4,12.7,9.6C36.4,17,37.8,16.7,39.3,16.7L39.3,16.7z"/>
<path class="st1" d="M774.6,32.9c6.6-0.4,12.3,4.7,12.7,11.3s-4.7,12.3-11.3,12.7c-0.5,0-0.9,0-1.4,0h-34.9c-5.2,0-9.4-4.2-9.4-9.4
	c0-5.2,4.2-9.4,9.4-9.4h0.7c-1.1-8,4.5-15.3,12.4-16.5c8-1.1,15.3,4.5,16.5,12.4C770.9,33.4,772.8,32.9,774.6,32.9L774.6,32.9z"/>
<path class="st0" d="M712.2,18.2c5.1-0.3,9.5,3.6,9.8,8.7c0.3,5.1-3.6,9.5-8.7,9.8c-0.4,0-0.7,0-1.1,0h-26.8c-4,0-7.2-3.2-7.2-7.2
	c0-4,3.2-7.2,7.2-7.2h0.5c-0.9-6.1,3.4-11.8,9.6-12.7s11.8,3.4,12.7,9.6C709.4,18.5,710.8,18.2,712.2,18.2L712.2,18.2z"/>
<path class="st0" d="M300,23.2c5.1-0.3,9.5,3.6,9.8,8.7s-3.6,9.5-8.7,9.8c-0.4,0-0.7,0-1.1,0h-26.8c-4,0-7.2-3.2-7.2-7.2
	c0-4,3.2-7.2,7.2-7.2h0.5c-0.9-6.1,3.4-11.8,9.6-12.7c6.1-0.9,11.8,3.4,12.7,9.6C297.2,23.5,298.5,23.1,300,23.2L300,23.2z"/>
<path class="st0" d="M473.6,31.9c5.1-0.3,9.5,3.6,9.8,8.7c0.3,5.1-3.6,9.5-8.7,9.8c-0.4,0-0.7,0-1.1,0h-26.8c-4,0-7.2-3.2-7.2-7.2
	c0-4,3.2-7.2,7.2-7.2h0.5c-0.9-6.1,3.4-11.8,9.6-12.7c6.1-0.9,11.8,3.4,12.7,9.6C470.8,32.2,472.2,31.9,473.6,31.9L473.6,31.9z"/>
<path class="st1" d="M392.3,21.7c6.6-0.4,12.3,4.7,12.7,11.3s-4.7,12.3-11.3,12.7c-0.5,0-0.9,0-1.4,0h-34.9c-5.2,0-9.4-4.2-9.4-9.4
	c0-5.2,4.2-9.4,9.4-9.4h0.7c-1.1-8,4.5-15.3,12.4-16.5s15.3,4.5,16.5,12.4C388.6,22.1,390.5,21.7,392.3,21.7L392.3,21.7z"/>
<path class="st1" d="M557.2,16.7c6.6-0.4,12.3,4.7,12.7,11.3s-4.7,12.3-11.3,12.7c-0.5,0-0.9,0-1.4,0h-34.9c-5.2,0-9.4-4.2-9.4-9.4
	c0-5.2,4.2-9.4,9.4-9.4h0.7c-1.1-8,4.5-15.3,12.4-16.5c8-1.1,15.3,4.5,16.5,12.4C553.6,17.1,555.4,16.7,557.2,16.7L557.2,16.7z"/>
<path class="st1" d="M638.5,31.9c5.1-0.3,9.5,3.6,9.8,8.7c0.3,5.1-3.6,9.5-8.7,9.8c-0.4,0-0.7,0-1.1,0h-26.8c-4,0-7.2-3.2-7.2-7.2
	c0-4,3.2-7.2,7.2-7.2h0.5c-0.9-6.1,3.4-11.8,9.6-12.7c6.1-0.9,11.8,3.4,12.7,9.6C635.7,32.2,637.1,31.9,638.5,31.9L638.5,31.9z"/>
<path class="st1" d="M217.7,25.3c6.9-0.4,12.8,4.9,13.2,11.8S226,50,219.1,50.4c-0.5,0-1,0-1.4,0h-36.4c-5.4,0-9.8-4.4-9.8-9.8
	c0-5.4,4.4-9.8,9.8-9.8h0.7c-1.2-8.3,4.7-16,13-17.2c8.3-1.2,16,4.7,17.2,13C213.9,25.8,215.8,25.3,217.7,25.3L217.7,25.3z"/>
</svg>
