<?xml version="1.0" encoding="utf-8"?>
<!-- Generator: Adobe Illustrator 21.0.2, SVG Export Plug-In . SVG Version: 6.00 Build 0)  -->
<svg version="1.1" id="Layer_1" xmlns="http://www.w3.org/2000/svg" xmlns:xlink="http://www.w3.org/1999/xlink" x="0px" y="0px"
	 viewBox="0 0 800 65" style="enable-background:new 0 0 800 65;" xml:space="preserve">
<style type="text/css">
	.st0{fill:#F4F427;}
	.st1{fill:#F4B70B;}
</style>
<g>
	<polygon class="st0" points="42,25.5 38.5,28.5 40.4,32.7 35.9,33.9 35.8,38.4 31.3,37.6 29.1,41.6 25.5,38.9 21.8,41.6 19.7,37.6 
		15.2,38.4 15,33.9 10.6,32.7 12.4,28.5 9,25.5 12.4,22.6 10.6,18.4 15,17.2 15.2,12.6 19.7,13.5 21.8,9.4 25.5,12.2 29.1,9.4 
		31.3,13.5 35.8,12.6 35.9,17.2 40.4,18.4 38.5,22.6 	"/>
	<circle class="st1" cx="25.5" cy="25.5" r="11"/>
</g>
</svg>
