<?xml version="1.0" encoding="utf-8"?>
<!-- Generator: Adobe Illustrator 21.0.2, SVG Export Plug-In . SVG Version: 6.00 Build 0)  -->
<svg version="1.1" id="Layer_1" xmlns="http://www.w3.org/2000/svg" xmlns:xlink="http://www.w3.org/1999/xlink" x="0px" y="0px"
	 viewBox="0 0 15 15" style="enable-background:new 0 0 15 15;" xml:space="preserve">
<style type="text/css">
	.st0{fill:#666666;}
</style>
<g>
	<rect x="5.8" y="11.4" class="st0" width="1.3" height="2.1"/>
	<path class="st0" d="M8.4,13.7c-0.1-0.3-0.4-0.6-0.8-0.6H5.2c-0.4,0-0.7,0.3-0.8,0.6H8.4z"/>
	<path class="st0" d="M11.5,11.7l-10,0c-0.3,0-0.5-0.3-0.4-0.6L3,6.1C3,5.9,3.2,5.8,3.4,5.8l6.1,0c0.2,0,0.3,0.1,0.4,0.3l2,5.1
		C12,11.4,11.8,11.7,11.5,11.7z"/>
	<polygon class="st0" points="1.6,11.1 3.3,6 9.6,6 11.3,11.1 	"/>
	<g>
		<polygon class="st0" points="10.3,7 2.6,7.1 2.5,7.4 10.4,7.4 		"/>
		<polygon class="st0" points="10.9,8.7 2,8.8 1.8,9.2 11.1,9.2 		"/>
		<polygon class="st0" points="8.2,5.9 9.3,11.4 8.8,11.4 7.9,5.9 		"/>
		<polygon class="st0" points="4.7,5.9 5,5.9 4.1,11.4 3.6,11.4 		"/>
		<polygon class="st0" points="6.3,5.9 6.6,5.9 6.7,11.4 6.2,11.4 		"/>
	</g>
	<g>
		<polygon class="st0" points="12.4,1 11.8,0.8 11.5,1.8 11.8,1.9 		"/>
		<polygon class="st0" points="12.6,2.4 13.9,1.5 13.3,1 12.4,2.2 		"/>
		<polygon class="st0" points="12.8,2.9 12.8,3.3 14,3.4 14,2.7 		"/>
		<polygon class="st0" points="12.6,4.1 13.2,4.7 13.5,4.2 12.7,3.7 		"/>
		<polygon class="st0" points="12,4.7 12.9,6.1 13.4,5.6 12.2,4.4 		"/>
		<polygon class="st0" points="11.3,4.7 11.2,5.9 11.9,5.9 11.6,4.7 		"/>
		<polygon class="st0" points="10.1,5.3 10.6,5.4 10.7,4.7 10.3,4.5 		"/>
		<polygon class="st0" points="8.6,4.4 8.9,5 10,4.1 9.8,3.8 		"/>
		<polygon class="st0" points="9.7,3.1 8.3,2.9 8.3,3.5 9.7,3.4 		"/>
		<polygon class="st0" points="10,2.2 9.1,1.2 8.8,1.9 9.9,2.4 		"/>
		<polygon class="st0" points="10.9,1.8 10.8,0.8 10.2,1.1 10.5,1.8 		"/>
		<circle class="st0" cx="11.2" cy="3.2" r="1.3"/>
	</g>
</g>
</svg>
