<?xml version="1.0" encoding="utf-8"?>
<!-- Generator: Adobe Illustrator 21.0.2, SVG Export Plug-In . SVG Version: 6.00 Build 0)  -->
<svg version="1.1" id="Layer_1" xmlns="http://www.w3.org/2000/svg" xmlns:xlink="http://www.w3.org/1999/xlink" x="0px" y="0px"
	 viewBox="0 0 45 45" style="enable-background:new 0 0 45 45;" xml:space="preserve">
<style type="text/css">
	.st0{fill:#4D4D4D;stroke:#0071BC;stroke-miterlimit:10;}
	.st1{fill:#F2F2F2;}
	.st2{font-family:'MyriadPro-Regular';}
	.st3{font-size:7px;}
	.st4{fill:none;stroke:#FFFFFF;stroke-width:0.2;stroke-miterlimit:10;}
	.st5{fill:#999999;}
</style>
<circle class="st0" cx="22.5" cy="22.2" r="20.3"/>
<text transform="matrix(1 0 0 1 13.2705 23.5533)"><tspan x="0" y="0" class="st1 st2 st3">START </tspan><tspan x="1.5" y="8.4" class="st1 st2 st3">STOP</tspan></text>
<line class="st4" x1="13" y1="25.2" x2="31.5" y2="25.2"/>
<g>
	<path class="st5" d="M16.3,12.5c0.5-0.6,1-1.1,1.6-1.5c0.5,0,1,0,1.6,0h3.1h3.1h1.6c0.5,0.5,1,0.9,1.6,1.5c-0.5,0.6-1,1-1.6,1.5
		h-1.6h-3.1h-3.1c-0.5,0-1,0-1.6,0C17.3,13.5,16.8,13.1,16.3,12.5z"/>
</g>
</svg>
