<?xml version="1.0" encoding="utf-8"?>
<!-- Generator: Adobe Illustrator 21.0.2, SVG Export Plug-In . SVG Version: 6.00 Build 0)  -->
<svg version="1.1" id="Layer_1" xmlns="http://www.w3.org/2000/svg" xmlns:xlink="http://www.w3.org/1999/xlink" x="0px" y="0px"
	 viewBox="0 0 20 20" style="enable-background:new 0 0 20 20;" xml:space="preserve">
<style type="text/css">
	.st0{fill:#3B4145;}
	.st1{fill:#525A61;}
	.st2{fill:#808080;}
	.st3{fill:#999999;}
</style>
<path class="st0" d="M12.3,4l5.2,8.9c0.2,0.3,0.3,0.7,0.3,1.1c0,1.2-1,2.2-2.2,2.2h-5.2L8.6,9.6l1.8-6.7C11.2,2.9,11.9,3.3,12.3,4z"
	/>
<path class="st1" d="M8.4,4l-5.2,8.9c-0.2,0.3-0.3,0.7-0.3,1.1c0,1.2,1,2.2,2.2,2.2h5.2V2.9C9.5,2.9,8.8,3.3,8.4,4z"/>
<path class="st2" d="M16.7,13.4l-5.2-8.9c-0.2-0.4-0.7-0.7-1.1-0.7l4.4,11.6h0.7c0.7,0,1.3-0.6,1.3-1.3
	C16.8,13.8,16.8,13.6,16.7,13.4z"/>
<path class="st3" d="M15.9,13.4c0.1,0.2,0.2,0.4,0.2,0.7c0,0.7-0.5,1.3-1.2,1.3H5.3c-0.7,0-1.3-0.6-1.3-1.3c0-0.2,0.1-0.5,0.2-0.7
	l5.2-8.9C9.5,4,10,3.8,10.4,3.8c0,0,0,0,0,0c0.4,0,0.8,0.3,1,0.7L15.9,13.4z"/>
</svg>
