<?xml version="1.0" encoding="utf-8"?>
<!-- Generator: Adobe Illustrator 21.0.2, SVG Export Plug-In . SVG Version: 6.00 Build 0)  -->
<svg version="1.1" xmlns="http://www.w3.org/2000/svg" xmlns:xlink="http://www.w3.org/1999/xlink" x="0px" y="0px"
	 viewBox="0 0 20 40" style="enable-background:new 0 0 20 40;" xml:space="preserve">
<style type="text/css">
	.st0{display:none;}
	.st1{display:inline;fill:#29ABE2;}
	.st2{fill:#FFFFFF;}
</style>
<g id="Layer_2" class="st0">
	<rect x="-0.4" y="-0.4" class="st1" width="20.7" height="40.4"/>
</g>
<g id="Layer_1">
	<g>
		<path class="st2" d="M3.7,34.1L5,37h9.6l1.4-2.9l0.1-0.7L15.6,20V3.5H4.3l0,16.5L3.6,33.4L3.7,34.1z M5,20.5L5,20.5L5,4.2h9.9
			v16.1l0.5,13H4.3L5,20.5z M10.4,11.6H9.6V6.1h0.8V11.6z M9.9,28.1c-1,0-1.8,0.8-1.8,1.8c0,1,0.8,1.8,1.8,1.8c1,0,1.8-0.8,1.8-1.8
			C11.7,28.9,10.9,28.1,9.9,28.1z M9.9,31c-0.6,0-1.1-0.5-1.1-1.1c0-0.6,0.5-1.1,1.1-1.1c0.6,0,1.1,0.5,1.1,1.1
			C10.9,30.5,10.5,31,9.9,31z M1.1,1.4v37.7h17.8V1.4H1.1z M18.2,38.4H1.8V2.1h16.4L18.2,38.4L18.2,38.4z"/>
	</g>
</g>
</svg>
